<?xml version="1.0" encoding="UTF-8"?>
<!DOCTYPE svg PUBLIC "-//W3C//DTD SVG 1.1//EN" "http://www.w3.org/Graphics/SVG/1.1/DTD/svg11.dtd">
<svg xmlns="http://www.w3.org/2000/svg" version="1.1" width="100px" height="100px" style="shape-rendering:geometricPrecision; text-rendering:geometricPrecision; image-rendering:optimizeQuality; fill-rule:evenodd; clip-rule:evenodd" xmlns:xlink="http://www.w3.org/1999/xlink">
<g><path style="opacity:0.4" fill="#3c3523" d="M 54.5,5.5 C 50.5,6.83333 46.5,6.83333 42.5,5.5C 46.5323,4.23371 50.5323,4.23371 54.5,5.5 Z"/></g>
<g><path style="opacity:0.996" fill="#040403" d="M 42.5,5.5 C 46.5,6.83333 50.5,6.83333 54.5,5.5C 65.1223,7.39415 74.2889,12.0608 82,19.5C 82.4643,20.0944 82.631,20.7611 82.5,21.5C 84.5867,25.3441 86.92,29.0107 89.5,32.5C 94.9554,50.0766 92.2888,66.0766 81.5,80.5C 70.8604,93.0993 57.1938,97.9326 40.5,95C 24.8103,91.8432 13.8103,83.0099 7.5,68.5C 6.82826,64.8117 5.99493,61.1451 5,57.5C 4.61742,56.944 4.11742,56.6107 3.5,56.5C 3.5,52.8333 3.5,49.1667 3.5,45.5C 4.11742,45.3893 4.61742,45.056 5,44.5C 5.37291,42.3018 5.87291,40.1351 6.5,38C 6.43007,37.2352 6.09674,36.7352 5.5,36.5C 12.074,19.3687 24.4073,9.03535 42.5,5.5 Z M 72.5,54.5 C 70.1667,54.8333 68.8333,56.1667 68.5,58.5C 66.5,58.5 65.5,59.5 65.5,61.5C 64.8333,61.5 64.5,61.8333 64.5,62.5C 61.5,63.5 59.5,65.5 58.5,68.5C 55.549,71.1951 52.8823,70.8618 50.5,67.5C 52.5,64.5 54.5,61.5 56.5,58.5C 57.1667,58.5 57.5,58.1667 57.5,57.5C 59.0481,57.1788 59.7148,56.1788 59.5,54.5C 46.1667,54.5 32.8333,54.5 19.5,54.5C 19.2436,52.2075 19.5769,50.0408 20.5,48C 33.2124,47.1864 45.879,47.353 58.5,48.5C 59.7759,47.3864 59.7759,46.3864 58.5,45.5C 56.4309,42.4275 53.7642,40.0941 50.5,38.5C 50.8183,34.6767 52.8183,32.8433 56.5,33C 62,38.5 67.5,44 73,49.5C 73.6397,51.265 73.4731,52.9317 72.5,54.5 Z"/></g>
<g><path style="opacity:0.184" fill="#393322" d="M 82.5,21.5 C 86.0911,24.3449 88.4244,28.0116 89.5,32.5C 86.92,29.0107 84.5867,25.3441 82.5,21.5 Z"/></g>
<g><path style="opacity:0.024" fill="#b2b1b0" d="M 50.5,38.5 C 53.7642,40.0941 56.4309,42.4275 58.5,45.5C 58.1667,45.5 57.8333,45.5 57.5,45.5C 54.8333,43.5 52.5,41.1667 50.5,38.5 Z"/></g>
<g><path style="opacity:0.271" fill="#3e3724" d="M 5.5,36.5 C 6.09674,36.7352 6.43007,37.2352 6.5,38C 5.87291,40.1351 5.37291,42.3018 5,44.5C 4.61742,45.056 4.11742,45.3893 3.5,45.5C 3.69973,42.3704 4.36639,39.3704 5.5,36.5 Z"/></g>
<g><path style="opacity:0.447" fill="#787775" d="M 57.5,45.5 C 57.8333,45.5 58.1667,45.5 58.5,45.5C 59.7759,46.3864 59.7759,47.3864 58.5,48.5C 45.879,47.353 33.2124,47.1864 20.5,48C 19.5769,50.0408 19.2436,52.2075 19.5,54.5C 19.5,54.8333 19.5,55.1667 19.5,55.5C 18.1834,52.7699 18.1834,49.9365 19.5,47C 32.34,46.8309 45.0066,46.3309 57.5,45.5 Z"/></g>
<g><path style="opacity:0.118" fill="#c2c1bf" d="M 19.5,55.5 C 19.5,55.1667 19.5,54.8333 19.5,54.5C 32.8333,54.5 46.1667,54.5 59.5,54.5C 59.7148,56.1788 59.0481,57.1788 57.5,57.5C 45.2108,55.5197 32.5441,54.853 19.5,55.5 Z"/></g>
<g><path style="opacity:0.871" fill="#3c3c3a" d="M 19.5,55.5 C 32.5441,54.853 45.2108,55.5197 57.5,57.5C 57.5,58.1667 57.1667,58.5 56.5,58.5C 44.3672,56.8402 32.0338,55.8402 19.5,55.5 Z"/></g>
<g><path style="opacity:0.545" fill="#888787" d="M 72.5,54.5 C 71.5,56.1667 70.1667,57.5 68.5,58.5C 68.8333,56.1667 70.1667,54.8333 72.5,54.5 Z"/></g>
<g><path style="opacity:0.357" fill="#9e9d9b" d="M 56.5,58.5 C 54.5,61.5 52.5,64.5 50.5,67.5C 50.123,63.3197 52.123,60.3197 56.5,58.5 Z"/></g>
<g><path style="opacity:0.541" fill="#7f7f7e" d="M 68.5,58.5 C 67.8333,59.8333 66.8333,60.8333 65.5,61.5C 65.5,59.5 66.5,58.5 68.5,58.5 Z"/></g>
<g><path style="opacity:0.151" fill="#403926" d="M 3.5,56.5 C 4.11742,56.6107 4.61742,56.944 5,57.5C 5.99493,61.1451 6.82826,64.8117 7.5,68.5C 6.88258,68.3893 6.38258,68.056 6,67.5C 5.00507,63.8549 4.17174,60.1883 3.5,56.5 Z"/></g>
<g><path style="opacity:0.537" fill="#898887" d="M 64.5,62.5 C 62.8333,64.8333 60.8333,66.8333 58.5,68.5C 59.5,65.5 61.5,63.5 64.5,62.5 Z"/></g>
<g><path style="opacity:0.231" fill="#342e1f" d="M 89.5,32.5 C 91.5113,34.667 92.6779,37.3337 93,40.5C 93.6667,47.5 93.6667,54.5 93,61.5C 91.3782,66.7825 89.0449,72.1158 86,77.5C 84.3853,78.3862 82.8853,79.3862 81.5,80.5C 92.2888,66.0766 94.9554,50.0766 89.5,32.5 Z"/></g>
</svg>
