<?xml version="1.0" encoding="UTF-8"?>
<!DOCTYPE svg PUBLIC "-//W3C//DTD SVG 1.1//EN" "http://www.w3.org/Graphics/SVG/1.1/DTD/svg11.dtd">
<svg xmlns="http://www.w3.org/2000/svg" version="1.1" width="100px" height="100px" style="shape-rendering:geometricPrecision; text-rendering:geometricPrecision; image-rendering:optimizeQuality; fill-rule:evenodd; clip-rule:evenodd" xmlns:xlink="http://www.w3.org/1999/xlink">
<g><path style="opacity:0.608" fill="#a2a2a2" d="M 86.5,24.5 C 84.8333,23.1667 83.1667,21.8333 81.5,20.5C 75.8672,14.1814 68.8672,10.1814 60.5,8.5C 60.0825,7.77842 59.4158,7.27842 58.5,7C 53.6478,6.18492 48.9811,6.35159 44.5,7.5C 42.4727,7.33788 40.4727,7.50454 38.5,8C 34.1499,9.66455 29.8165,11.1645 25.5,12.5C 29.5864,9.28744 34.2531,7.12077 39.5,6C 53.4065,3.31426 66.0731,5.98092 77.5,14C 81.1074,17.0977 84.1074,20.5977 86.5,24.5 Z"/></g>
<g><path style="opacity:1" fill="#050505" d="M 44.5,7.5 C 49.8617,7.47245 55.1951,7.80578 60.5,8.5C 68.8672,10.1814 75.8672,14.1814 81.5,20.5C 82.4194,23.0892 84.086,25.0892 86.5,26.5C 87.1667,27.1667 87.8333,27.8333 88.5,28.5C 88.5,29.1667 88.5,29.8333 88.5,30.5C 88.427,32.0269 89.0937,33.0269 90.5,33.5C 91.038,35.1172 91.3713,36.7839 91.5,38.5C 92.8333,46.5 92.8333,54.5 91.5,62.5C 87.7807,74.8843 80.114,83.8843 68.5,89.5C 66.9731,89.427 65.9731,90.0937 65.5,91.5C 59.2998,93.0037 52.9665,93.6704 46.5,93.5C 44.1667,93.5 41.8333,93.5 39.5,93.5C 37.6208,92.6586 35.6208,92.3253 33.5,92.5C 32.0552,90.9373 30.3885,89.604 28.5,88.5C 28.0269,87.0937 27.0269,86.427 25.5,86.5C 24.4154,84.4131 22.7488,83.0798 20.5,82.5C 18.2034,80.7059 16.0367,78.7059 14,76.5C 10.6074,70.7343 8.10736,64.7343 6.5,58.5C 6.5,53.5 6.5,48.5 6.5,43.5C 7.92381,41.4855 8.59047,39.1522 8.5,36.5C 9.31726,33.3815 10.3173,30.3815 11.5,27.5C 12.9387,25.6397 14.6053,23.973 16.5,22.5C 18.5,21.1667 20.1667,19.5 21.5,17.5C 22.8333,15.8333 24.1667,14.1667 25.5,12.5C 29.8165,11.1645 34.1499,9.66455 38.5,8C 40.4727,7.50454 42.4727,7.33788 44.5,7.5 Z"/></g>
<g><path style="opacity:0.949" fill="#535353" d="M 44.5,7.5 C 48.9811,6.35159 53.6478,6.18492 58.5,7C 59.4158,7.27842 60.0825,7.77842 60.5,8.5C 55.1951,7.80578 49.8617,7.47245 44.5,7.5 Z"/></g>
<g><path style="opacity:0.329" fill="#b3b3b3" d="M 25.5,12.5 C 24.1667,14.1667 22.8333,15.8333 21.5,17.5C 18.8333,18.1667 17.1667,19.8333 16.5,22.5C 14.6053,23.973 12.9387,25.6397 11.5,27.5C 14.1057,20.5615 18.7724,15.5615 25.5,12.5 Z"/></g>
<g><path style="opacity:1" fill="#393939" d="M 21.5,17.5 C 20.1667,19.5 18.5,21.1667 16.5,22.5C 17.1667,19.8333 18.8333,18.1667 21.5,17.5 Z"/></g>
<g><path style="opacity:1" fill="#404040" d="M 81.5,20.5 C 83.1667,21.8333 84.8333,23.1667 86.5,24.5C 86.5,25.1667 86.5,25.8333 86.5,26.5C 84.086,25.0892 82.4194,23.0892 81.5,20.5 Z"/></g>
<g><path style="opacity:0.282" fill="#b8b8b8" d="M 86.5,24.5 C 88.1042,25.287 88.7709,26.6203 88.5,28.5C 87.8333,27.8333 87.1667,27.1667 86.5,26.5C 86.5,25.8333 86.5,25.1667 86.5,24.5 Z"/></g>
<g><path style="opacity:0.475" fill="#afafaf" d="M 88.5,28.5 C 89.9063,28.9731 90.573,29.9731 90.5,31.5C 89.8333,31.1667 89.1667,30.8333 88.5,30.5C 88.5,29.8333 88.5,29.1667 88.5,28.5 Z"/></g>
<g><path style="opacity:0.98" fill="#6c6c6c" d="M 33.5,31.5 C 32.5,31.5 31.5,31.5 30.5,31.5C 30.5,32.5 30.5,33.5 30.5,34.5C 29.5655,33.4324 29.2322,32.099 29.5,30.5C 31.099,30.2322 32.4324,30.5655 33.5,31.5 Z"/></g>
<g><path style="opacity:0.973" fill="#f0f0f0" d="M 33.5,69.5 C 32.5,69.5 31.5,69.5 30.5,69.5C 30.4326,68.0413 30.7659,66.7079 31.5,65.5C 35.5271,60.8062 39.8604,56.4729 44.5,52.5C 47.1667,51.1667 47.1667,49.8333 44.5,48.5C 40.1667,43.5 35.5,38.8333 30.5,34.5C 30.5,33.5 30.5,32.5 30.5,31.5C 31.5,31.5 32.5,31.5 33.5,31.5C 38.8421,36.6755 44.3421,41.6755 50,46.5C 55.5837,42.0855 60.7504,37.0855 65.5,31.5C 66.6888,30.5713 68.0222,30.238 69.5,30.5C 69.6567,31.8734 69.49,33.2068 69,34.5C 63.6516,39.6813 58.485,45.0147 53.5,50.5C 58.485,55.9853 63.6516,61.3187 69,66.5C 69.4828,67.448 69.6495,68.448 69.5,69.5C 68.1266,69.6567 66.7932,69.49 65.5,69C 60.6228,63.7872 55.4562,58.9539 50,54.5C 44.3421,59.3245 38.8421,64.3245 33.5,69.5 Z"/></g>
<g><path style="opacity:0.918" fill="#585858" d="M 88.5,30.5 C 89.1667,30.8333 89.8333,31.1667 90.5,31.5C 90.5,32.1667 90.5,32.8333 90.5,33.5C 89.0937,33.0269 88.427,32.0269 88.5,30.5 Z"/></g>
<g><path style="opacity:0.373" fill="#a6a6a6" d="M 11.5,27.5 C 10.3173,30.3815 9.31726,33.3815 8.5,36.5C 7.26162,38.2143 6.59495,40.2143 6.5,42.5C 5.83333,43.5 5.16667,44.5 4.5,45.5C 4.85671,38.6636 7.19004,32.6636 11.5,27.5 Z"/></g>
<g><path style="opacity:1" fill="#3c3c3c" d="M 8.5,36.5 C 8.59047,39.1522 7.92381,41.4855 6.5,43.5C 6.5,43.1667 6.5,42.8333 6.5,42.5C 6.59495,40.2143 7.26162,38.2143 8.5,36.5 Z"/></g>
<g><path style="opacity:1" fill="#2c2c2c" d="M 91.5,38.5 C 92.2216,38.9175 92.7216,39.5842 93,40.5C 93.6667,46.8333 93.6667,53.1667 93,59.5C 92.7679,60.7375 92.2679,61.7375 91.5,62.5C 92.8333,54.5 92.8333,46.5 91.5,38.5 Z"/></g>
<g><path style="opacity:0.998" fill="#555555" d="M 44.5,48.5 C 47.1667,49.8333 47.1667,51.1667 44.5,52.5C 44.5,51.1667 44.5,49.8333 44.5,48.5 Z"/></g>
<g><path style="opacity:0.882" fill="#676767" d="M 6.5,42.5 C 6.5,42.8333 6.5,43.1667 6.5,43.5C 6.5,48.5 6.5,53.5 6.5,58.5C 5.83333,56.5 5.16667,54.5 4.5,52.5C 4.5,50.1667 4.5,47.8333 4.5,45.5C 5.16667,44.5 5.83333,43.5 6.5,42.5 Z"/></g>
<g><path style="opacity:0.98" fill="#666666" d="M 31.5,65.5 C 30.7659,66.7079 30.4326,68.0413 30.5,69.5C 29.8761,69.0831 29.5427,68.4164 29.5,67.5C 29.7472,66.2867 30.4138,65.62 31.5,65.5 Z"/></g>
<g><path style="opacity:1" fill="#4b4b4b" d="M 30.5,69.5 C 31.5,69.5 32.5,69.5 33.5,69.5C 32.5,72.1667 31.5,72.1667 30.5,69.5 Z"/></g>
<g><path style="opacity:0.392" fill="#a7a7a7" d="M 4.5,52.5 C 5.16667,54.5 5.83333,56.5 6.5,58.5C 8.10736,64.7343 10.6074,70.7343 14,76.5C 16.0367,78.7059 18.2034,80.7059 20.5,82.5C 21.5846,84.5869 23.2512,85.9202 25.5,86.5C 25.8333,87.1667 26.1667,87.8333 26.5,88.5C 20.9769,85.4901 16.1436,81.4901 12,76.5C 9.3636,71.5648 7.03027,66.5648 5,61.5C 4.50204,58.5184 4.33537,55.5184 4.5,52.5 Z"/></g>
<g><path style="opacity:1" fill="#3a3a3a" d="M 20.5,82.5 C 22.7488,83.0798 24.4154,84.4131 25.5,86.5C 23.2512,85.9202 21.5846,84.5869 20.5,82.5 Z"/></g>
<g><path style="opacity:0.498" fill="#9d9d9d" d="M 90.5,31.5 C 100.922,59.0529 92.9221,79.5529 66.5,93C 58.0099,95.2417 49.3432,96.0751 40.5,95.5C 40.1667,94.8333 39.8333,94.1667 39.5,93.5C 41.8333,93.5 44.1667,93.5 46.5,93.5C 53.0549,95.0923 59.3882,94.4257 65.5,91.5C 67.0269,91.573 68.0269,90.9063 68.5,89.5C 80.114,83.8843 87.7807,74.8843 91.5,62.5C 92.2679,61.7375 92.7679,60.7375 93,59.5C 93.6667,53.1667 93.6667,46.8333 93,40.5C 92.7216,39.5842 92.2216,38.9175 91.5,38.5C 91.3713,36.7839 91.038,35.1172 90.5,33.5C 90.5,32.8333 90.5,32.1667 90.5,31.5 Z"/></g>
<g><path style="opacity:0.976" fill="#545454" d="M 25.5,86.5 C 27.0269,86.427 28.0269,87.0937 28.5,88.5C 27.8333,88.5 27.1667,88.5 26.5,88.5C 26.1667,87.8333 25.8333,87.1667 25.5,86.5 Z"/></g>
<g><path style="opacity:0.463" fill="#a6a6a6" d="M 26.5,88.5 C 27.1667,88.5 27.8333,88.5 28.5,88.5C 30.3885,89.604 32.0552,90.9373 33.5,92.5C 30.6689,91.9213 28.3356,90.588 26.5,88.5 Z"/></g>
<g><path style="opacity:0.902" fill="#575757" d="M 68.5,89.5 C 68.0269,90.9063 67.0269,91.573 65.5,91.5C 65.9731,90.0937 66.9731,89.427 68.5,89.5 Z"/></g>
<g><path style="opacity:0.951" fill="#4c4c4c" d="M 65.5,91.5 C 59.3882,94.4257 53.0549,95.0923 46.5,93.5C 52.9665,93.6704 59.2998,93.0037 65.5,91.5 Z"/></g>
<g><path style="opacity:0.161" fill="#b8b8b8" d="M 33.5,92.5 C 35.6208,92.3253 37.6208,92.6586 39.5,93.5C 39.8333,94.1667 40.1667,94.8333 40.5,95.5C 37.9967,94.7445 35.6634,93.7445 33.5,92.5 Z"/></g>
</svg>
