<?xml version="1.0" encoding="UTF-8"?>
<!DOCTYPE svg PUBLIC "-//W3C//DTD SVG 1.1//EN" "http://www.w3.org/Graphics/SVG/1.1/DTD/svg11.dtd">
<svg xmlns="http://www.w3.org/2000/svg" version="1.1" width="100px" height="100px" style="shape-rendering:geometricPrecision; text-rendering:geometricPrecision; image-rendering:optimizeQuality; fill-rule:evenodd; clip-rule:evenodd" xmlns:xlink="http://www.w3.org/1999/xlink">
<g><path style="opacity:0.541" fill="#a2a2a2" d="M 80.5,17.5 C 75.8944,13.8552 70.8944,10.6885 65.5,8C 61.534,7.17205 57.534,6.67205 53.5,6.5C 48.3186,5.36363 42.9853,5.36363 37.5,6.5C 50.3808,2.78854 62.7141,4.28854 74.5,11C 76.756,13.0829 78.756,15.2496 80.5,17.5 Z"/></g>
<g><path style="opacity:1" fill="#373737" d="M 53.5,6.5 C 46.8478,7.29697 40.1811,7.96364 33.5,8.5C 34.8333,7.83333 36.1667,7.16667 37.5,6.5C 42.9853,5.36363 48.3186,5.36363 53.5,6.5 Z"/></g>
<g><path style="opacity:1" fill="#040404" d="M 53.5,6.5 C 57.534,6.67205 61.534,7.17205 65.5,8C 70.8944,10.6885 75.8944,13.8552 80.5,17.5C 81.5,19.1667 82.8333,20.5 84.5,21.5C 84.943,25.5977 86.943,28.5977 90.5,30.5C 90.6896,33.855 91.6896,36.855 93.5,39.5C 96.2147,54.8399 92.7147,68.5066 83,80.5C 73.0445,90.9728 60.8779,95.9728 46.5,95.5C 43.6553,94.6562 40.6553,93.9896 37.5,93.5C 34.9512,93.6126 32.6179,92.9459 30.5,91.5C 26.5132,88.838 22.5132,86.1714 18.5,83.5C 13.9264,77.9544 10.2597,71.9544 7.5,65.5C 6.08066,61.9852 5.41399,58.3186 5.5,54.5C 5.37477,48.7969 5.7081,43.1302 6.5,37.5C 8.73343,32.7464 11.2334,28.0798 14,23.5C 18.0094,19.6575 21.8427,15.6575 25.5,11.5C 27.3797,11.7709 28.713,11.1042 29.5,9.5C 31.099,9.76781 32.4324,9.43448 33.5,8.5C 40.1811,7.96364 46.8478,7.29697 53.5,6.5 Z"/></g>
<g><path style="opacity:1" fill="#8c8c8c" d="M 37.5,6.5 C 36.1667,7.16667 34.8333,7.83333 33.5,8.5C 32.4324,9.43448 31.099,9.76781 29.5,9.5C 31.5027,7.01812 34.1694,6.01812 37.5,6.5 Z"/></g>
<g><path style="opacity:0.357" fill="#b2b2b2" d="M 29.5,9.5 C 28.713,11.1042 27.3797,11.7709 25.5,11.5C 26.5137,10.3263 27.847,9.6596 29.5,9.5 Z"/></g>
<g><path style="opacity:0.812" fill="#929292" d="M 25.5,11.5 C 21.8427,15.6575 18.0094,19.6575 14,23.5C 11.2334,28.0798 8.73343,32.7464 6.5,37.5C 8.98357,26.0169 15.3169,17.3503 25.5,11.5 Z"/></g>
<g><path style="opacity:0.169" fill="#b1b1b1" d="M 80.5,17.5 C 82.8333,17.8333 84.1667,19.1667 84.5,21.5C 82.8333,20.5 81.5,19.1667 80.5,17.5 Z"/></g>
<g><path style="opacity:1" fill="#757575" d="M 84.5,21.5 C 87.2768,23.9505 89.2768,26.9505 90.5,30.5C 86.943,28.5977 84.943,25.5977 84.5,21.5 Z"/></g>
<g><path style="opacity:1" fill="#8d8d8d" d="M 90.5,30.5 C 92.8676,32.9557 93.8676,35.9557 93.5,39.5C 91.6896,36.855 90.6896,33.855 90.5,30.5 Z"/></g>
<g><path style="opacity:1" fill="#545454" d="M 59.5,36.5 C 52.8465,35.2094 46.1798,35.2094 39.5,36.5C 39.6107,35.8826 39.944,35.3826 40.5,35C 43.6667,34.8333 46.8333,34.6667 50,34.5C 53.5758,34.5152 56.7425,35.1818 59.5,36.5 Z"/></g>
<g><path style="opacity:0.984" fill="#f6f6f6" d="M 59.5,36.5 C 63.4134,38.4707 67.0801,40.9707 70.5,44C 72.5836,45.5007 73.9169,47.5007 74.5,50C 70.8071,55.8702 65.8071,60.0368 59.5,62.5C 56.3657,63.2271 53.1991,63.8937 50,64.5C 46.499,63.7663 42.999,63.0997 39.5,62.5C 33.5951,59.5985 28.9284,55.2651 25.5,49.5C 28.9415,43.7908 33.6082,39.4575 39.5,36.5C 46.1798,35.2094 52.8465,35.2094 59.5,36.5 Z"/></g>
<g><path style="opacity:1" fill="#1b1b1b" d="M 54.5,58.5 C 50.2273,58.919 46.2273,58.2524 42.5,56.5C 41.5416,56.0472 40.7083,55.3805 40,54.5C 38.0016,43.5005 42.5016,38.6671 53.5,40C 59.7952,42.4252 61.9618,46.9252 60,53.5C 58.9455,56.0559 57.1122,57.7225 54.5,58.5 Z"/></g>
<g><path style="opacity:0.985" fill="#efefef" d="M 47.5,43.5 C 48.9778,43.238 50.3112,43.5713 51.5,44.5C 52.3697,46.5259 53.8697,47.8592 56,48.5C 55.6759,54.4324 52.5093,56.5991 46.5,55C 42.3759,50.6949 42.7092,46.8615 47.5,43.5 Z"/></g>
<g><path style="opacity:1" fill="#727272" d="M 6.5,37.5 C 5.7081,43.1302 5.37477,48.7969 5.5,54.5C 4.52056,51.3752 4.18723,48.0419 4.5,44.5C 4.17057,41.7718 4.83724,39.4385 6.5,37.5 Z"/></g>
<g><path style="opacity:1" fill="#545454" d="M 42.5,56.5 C 46.2273,58.2524 50.2273,58.919 54.5,58.5C 49.9655,61.3697 45.9655,60.703 42.5,56.5 Z"/></g>
<g><path style="opacity:0.459" fill="#b5b5b5" d="M 4.5,44.5 C 4.18723,48.0419 4.52056,51.3752 5.5,54.5C 5.41399,58.3186 6.08066,61.9852 7.5,65.5C 7.5,66.1667 7.5,66.8333 7.5,67.5C 3.80508,60.1353 2.80508,52.4686 4.5,44.5 Z"/></g>
<g><path style="opacity:1" fill="#313131" d="M 39.5,62.5 C 42.999,63.0997 46.499,63.7663 50,64.5C 53.1991,63.8937 56.3657,63.2271 59.5,62.5C 56.8735,64.3235 53.8735,65.6568 50.5,66.5C 47.3667,65.1391 44.0334,64.3058 40.5,64C 39.944,63.6174 39.6107,63.1174 39.5,62.5 Z"/></g>
<g><path style="opacity:0.541" fill="#8e8e8e" d="M 7.5,65.5 C 10.2597,71.9544 13.9264,77.9544 18.5,83.5C 12.9094,79.5618 9.24277,74.2284 7.5,67.5C 7.5,66.8333 7.5,66.1667 7.5,65.5 Z"/></g>
<g><path style="opacity:0.561" fill="#969696" d="M 93.5,39.5 C 98.4314,66.7758 87.7647,85.6091 61.5,96C 53.6554,96.8223 45.9887,96.6557 38.5,95.5C 41.1667,95.5 43.8333,95.5 46.5,95.5C 60.8779,95.9728 73.0445,90.9728 83,80.5C 92.7147,68.5066 96.2147,54.8399 93.5,39.5 Z"/></g>
<g><path style="opacity:0.373" fill="#a2a2a2" d="M 18.5,83.5 C 22.5132,86.1714 26.5132,88.838 30.5,91.5C 32.6179,92.9459 34.9512,93.6126 37.5,93.5C 37.8333,94.1667 38.1667,94.8333 38.5,95.5C 30.5648,93.5548 23.8981,89.5548 18.5,83.5 Z"/></g>
<g><path style="opacity:1" fill="#474747" d="M 37.5,93.5 C 40.6553,93.9896 43.6553,94.6562 46.5,95.5C 43.8333,95.5 41.1667,95.5 38.5,95.5C 38.1667,94.8333 37.8333,94.1667 37.5,93.5 Z"/></g>
</svg>
